# xmcd
#
# Track frame offsets: 
#        150
#        20249
#        39598
#        56847
#        68096
#        88195
#        101844
#        121793
#        137092
#        154791
#        168740
#        187489
#        207738
#        224425
#
# Disc length: 3216 seconds
#
# Revision: 0
# Processed by: cddbd v1.5.2PL0 Copyright (c) Steve Scherf et al.
# Submitted via: ExactAudioCopy v0.95b4
#
DISCID=e20c8e0e
DTITLE=Игорь Малышев - Дотянем До Весны
DYEAR=1997
DGENRE=Acoustic
TTITLE0=Воспоминания При Встрече
TTITLE1=По Пути
TTITLE2=Мой День Рождения
TTITLE3=Холостяцкая (Ода Сосиске)
TTITLE4=Темы Песен
TTITLE5=Дотянем До Весны
TTITLE6=Вечер У Камина
TTITLE7=Ах, Девочки
TTITLE8=Час Прощанья
TTITLE9=Свадьба Друга
TTITLE10=Походная
TTITLE11=Друзья Моего Детства
TTITLE12=Я Не Прощаюсь
TTITLE13=Узник
EXTD=
EXTT0=
EXTT1=
EXTT2=
EXTT3=
EXTT4=
EXTT5=
EXTT6=
EXTT7=
EXTT8=
EXTT9=
EXTT10=
EXTT11=
EXTT12=
EXTT13=
PLAYORDER=
